# xmcd
#
# Track frame offsets: 
#        150
#        17503
#        35280
#        52343
#        69983
#        92133
#        103785
#        113433
#        128480
#        139238
#        154448
#        169803
#        184498
#        206123
#        224205
#
# Disc length: 3163 seconds
#
# Revision: 0
# Processed by: cddbd v1.5.2PL0 Copyright (c) Steve Scherf et al.
# Submitted via: ExactAudioCopy v0.99pb5
#
DISCID=e20c590f
DTITLE=Kid Creole and The Coconuts - The Ultimate Collection [CD2)
DYEAR=2003
DGENRE=Pop
TTITLE0=I'm A Wonderful Thing
TTITLE1=Stool Pigeon
TTITLE2=Annie I'm Not Your Daddy
TTITLE3=Imitation
TTITLE4=No Fish Today
TTITLE5=The Lifeboat Party
TTITLE6=Don't Take My Coconuts
TTITLE7=There's Something Wrong In Paradise
TTITLE8=If You Wanna Be Happy
TTITLE9=Back In The Field Again
TTITLE10=Call Me The Entertainer
TTITLE11=It's A Wonderful Life
TTITLE12=Fireside Story
TTITLE13=Endicott
TTITLE14=Hey Mambo
EXTD=
EXTT0=
EXTT1=
EXTT2=
EXTT3=
EXTT4=
EXTT5=
EXTT6=
EXTT7=
EXTT8=
EXTT9=
EXTT10=
EXTT11=
EXTT12=
EXTT13=
EXTT14=
PLAYORDER=
